fd_3_states
version=1
nRows=47
nColumns=17
inDegrees=yes

# SIMM Motion File Header:
name fd_3_states
datacolumns 17
datarows 47
otherdata 1
range 0.418893 0.429066
endheader
time	/jointset/r_shoulder/r_shoulder_elev/value	/jointset/r_shoulder/r_shoulder_elev/speed	/jointset/r_elbow/r_elbow_flex/value	/jointset/r_elbow/r_elbow_flex/speed	/forceset/TRIlong/activation	/forceset/TRIlong/fiber_length	/forceset/TRIlat/activation	/forceset/TRIlat/fiber_length	/forceset/TRImed/activation	/forceset/TRImed/fiber_length	/forceset/BIClong/activation	/forceset/BIClong/fiber_length	/forceset/BICshort/activation	/forceset/BICshort/fiber_length	/forceset/BRA/activation	/forceset/BRA/fiber_length
      0.418893	    -11.093227	    358.935102	    184.764812	     87.056146	      0.020685	      0.172769	      0.248757	      0.113417	      0.246052	      0.108439	      0.994280	      0.057764	      0.745831	      0.055871	      0.021047	      0.039263
      0.419185	    -10.988450	    359.757079	    184.789951	     85.381759	      0.020682	      0.172774	      0.248966	      0.113410	      0.246260	      0.108431	      0.994363	      0.057746	      0.750359	      0.055843	      0.021043	      0.039262
      0.419467	    -10.886863	    360.523954	    184.813808	     83.776275	      0.020680	      0.172806	      0.249161	      0.113402	      0.246455	      0.108424	      0.994442	      0.057730	      0.754645	      0.055816	      0.021039	      0.039261
      0.419722	    -10.794968	    361.205207	    184.834958	     82.333769	      0.020677	      0.172905	      0.249332	      0.113396	      0.246626	      0.108418	      0.994513	      0.057714	      0.758437	      0.055791	      0.021036	      0.039261
      0.419976	    -10.702897	    361.900400	    184.855740	     80.887857	      0.020675	      0.172918	      0.249497	      0.113389	      0.246791	      0.108412	      0.994583	      0.057698	      0.762158	      0.055767	      0.021032	      0.039260
      0.420007	    -10.691969	    361.981346	    184.858180	     80.717176	      0.020675	      0.172921	      0.249515	      0.113389	      0.246809	      0.108411	      0.994591	      0.057696	      0.762483	      0.055764	      0.021032	      0.039260
      0.420034	    -10.682158	    362.053815	    184.860365	     80.564079	      0.020675	      0.172925	      0.249520	      0.113388	      0.246815	      0.108410	      0.994598	      0.057695	      0.761882	      0.055761	      0.021032	      0.039260
      0.420061	    -10.672345	    362.126137	    184.862547	     80.411061	      0.020674	      0.172929	      0.249523	      0.113387	      0.246819	      0.108410	      0.994606	      0.057693	      0.761203	      0.055758	      0.021031	      0.039260
      0.420196	    -10.623252	    362.486327	    184.873391	     79.646848	      0.020673	      0.172954	      0.249538	      0.113384	      0.246839	      0.108406	      0.994642	      0.057684	      0.757828	      0.055746	      0.021029	      0.039259
      0.420553	    -10.493663	    363.427140	    184.901469	     77.639509	      0.020670	      0.173035	      0.249578	      0.113375	      0.246891	      0.108398	      0.994737	      0.057662	      0.749072	      0.055714	      0.021024	      0.039259
      0.420784	    -10.409605	    364.033325	    184.919262	     76.344134	      0.020668	      0.173072	      0.249603	      0.113370	      0.246923	      0.108392	      0.994798	      0.057647	      0.743509	      0.055694	      0.021021	      0.039258
      0.421075	    -10.303850	    364.781495	    184.941182	     74.726591	      0.020665	      0.173191	      0.249634	      0.113363	      0.246963	      0.108386	      0.994873	      0.057627	      0.736636	      0.055671	      0.021017	      0.039257
      0.421365	    -10.197876	    365.547899	    184.962633	     73.106521	      0.020663	      0.173202	      0.249663	      0.113356	      0.247001	      0.108379	      0.994947	      0.057608	      0.729886	      0.055648	      0.021013	      0.039257
      0.421604	    -10.110208	    366.159724	    184.979992	     71.781566	      0.020661	      0.173239	      0.249687	      0.113351	      0.247032	      0.108374	      0.995008	      0.057592	      0.724403	      0.055630	      0.021010	      0.039256
      0.421862	    -10.015814	    366.805652	    184.998298	     70.366797	      0.020658	      0.173336	      0.249711	      0.113345	      0.247064	      0.108368	      0.995072	      0.057574	      0.718597	      0.055612	      0.021007	      0.039256
      0.422120	     -9.921252	    367.460362	    185.016240	     68.953753	      0.020656	      0.173352	      0.249735	      0.113339	      0.247095	      0.108363	      0.995135	      0.057556	      0.712882	      0.055594	      0.021003	      0.039255
      0.422347	     -9.837669	    368.024249	    185.031771	     67.717081	      0.020654	      0.173395	      0.249756	      0.113335	      0.247122	      0.108358	      0.995190	      0.057540	      0.707912	      0.055579	      0.021000	      0.039255
      0.422574	     -9.753958	    368.581371	    185.047023	     66.487718	      0.020652	      0.173439	      0.249776	      0.113330	      0.247148	      0.108354	      0.995245	      0.057523	      0.703009	      0.055564	      0.020997	      0.039254
      0.422813	     -9.665991	    369.157127	    185.062726	     65.206544	      0.020650	      0.173528	      0.249796	      0.113325	      0.247174	      0.108349	      0.995302	      0.057506	      0.697936	      0.055549	      0.020994	      0.039254
      0.423051	     -9.577885	    369.739531	    185.078123	     63.928167	      0.020648	      0.173545	      0.249816	      0.113320	      0.247200	      0.108344	      0.995357	      0.057489	      0.692934	      0.055535	      0.020991	      0.039253
      0.423264	     -9.499192	    370.246941	    185.091600	     62.797736	      0.020646	      0.173586	      0.249833	      0.113316	      0.247222	      0.108340	      0.995407	      0.057473	      0.688531	      0.055522	      0.020988	      0.039253
      0.423476	     -9.420392	    370.747818	    185.104836	     61.674646	      0.020644	      0.173630	      0.249850	      0.113311	      0.247244	      0.108336	      0.995455	      0.057457	      0.684183	      0.055510	      0.020985	      0.039252
      0.423785	     -9.305862	    371.464050	    185.123620	     60.057892	      0.020642	      0.173727	      0.249874	      0.113305	      0.247275	      0.108330	      0.995525	      0.057433	      0.677968	      0.055492	      0.020981	      0.039252
      0.424094	     -9.191110	    372.180664	    185.141907	     58.451517	      0.020639	      0.173757	      0.249897	      0.113300	      0.247305	      0.108324	      0.995594	      0.057409	      0.671863	      0.055475	      0.020977	      0.039251
      0.424309	     -9.111014	    372.665295	    185.154358	     57.344471	      0.020637	      0.173856	      0.249912	      0.113296	      0.247325	      0.108320	      0.995641	      0.057393	      0.667672	      0.055463	      0.020975	      0.039251
      0.424524	     -9.030813	    373.162634	    185.166572	     56.237665	      0.020636	      0.173864	      0.249927	      0.113292	      0.247345	      0.108317	      0.995688	      0.057375	      0.663532	      0.055452	      0.020972	      0.039251
      0.424731	     -8.953311	    373.626025	    185.178135	     55.181392	      0.020634	      0.173896	      0.249942	      0.113288	      0.247363	      0.108313	      0.995733	      0.057359	      0.659584	      0.055441	      0.020969	      0.039250
      0.424949	     -8.872016	    374.101888	    185.190014	     54.084264	      0.020632	      0.173977	      0.249956	      0.113284	      0.247382	      0.108309	      0.995779	      0.057341	      0.655497	      0.055430	      0.020966	      0.039250
      0.425166	     -8.790617	    374.582959	    185.201655	     52.990802	      0.020630	      0.173994	      0.249970	      0.113280	      0.247400	      0.108305	      0.995825	      0.057324	      0.651459	      0.055419	      0.020964	      0.039250
      0.425367	     -8.715560	    375.015573	    185.212167	     51.993148	      0.020629	      0.174035	      0.249983	      0.113277	      0.247417	      0.108302	      0.995867	      0.057307	      0.647784	      0.055409	      0.020961	      0.039249
      0.425567	     -8.640417	    375.442226	    185.222480	     51.002915	      0.020627	      0.174077	      0.249996	      0.113273	      0.247433	      0.108299	      0.995908	      0.057290	      0.644149	      0.055399	      0.020958	      0.039249
      0.425810	     -8.549217	    375.951301	    185.234716	     49.812635	      0.020625	      0.174162	      0.250010	      0.113269	      0.247452	      0.108295	      0.995957	      0.057270	      0.639796	      0.055387	      0.020955	      0.039249
      0.426052	     -8.457892	    376.463748	    185.246664	     48.628512	      0.020623	      0.174184	      0.250025	      0.113265	      0.247471	      0.108291	      0.996006	      0.057249	      0.635501	      0.055375	      0.020952	      0.039248
      0.426301	     -8.364010	    376.976891	    185.258633	     47.425983	      0.020621	      0.174237	      0.250039	      0.113261	      0.247490	      0.108287	      0.996056	      0.057228	      0.631150	      0.055363	      0.020949	      0.039248
      0.426551	     -8.270000	    377.477831	    185.270303	     46.236430	      0.020619	      0.174350	      0.250053	      0.113257	      0.247508	      0.108283	      0.996105	      0.057206	      0.626858	      0.055351	      0.020946	      0.039248
      0.426800	     -8.175863	    377.995488	    185.281677	     45.048262	      0.020617	      0.174359	      0.250067	      0.113253	      0.247525	      0.108279	      0.996153	      0.057185	      0.622623	      0.055340	      0.020943	      0.039247
      0.427007	     -8.097359	    378.407389	    185.290927	     44.072604	      0.020615	      0.174391	      0.250078	      0.113250	      0.247539	      0.108276	      0.996193	      0.057166	      0.619138	      0.055330	      0.020940	      0.039247
      0.427214	     -8.019135	    378.807904	    185.299933	     43.110926	      0.020613	      0.174473	      0.250088	      0.113247	      0.247553	      0.108273	      0.996232	      0.057148	      0.615707	      0.055320	      0.020938	      0.039247
      0.427421	     -7.940827	    379.214429	    185.308741	     42.152486	      0.020612	      0.174488	      0.250099	      0.113244	      0.247567	      0.108270	      0.996271	      0.057129	      0.612314	      0.055311	      0.020935	      0.039247
      0.427613	     -7.867900	    379.582499	    185.316758	     41.269976	      0.020610	      0.174528	      0.250108	      0.113241	      0.247579	      0.108268	      0.996307	      0.057112	      0.609190	      0.055302	      0.020933	      0.039246
      0.427805	     -7.794902	    379.945425	    185.324607	     40.394449	      0.020608	      0.174569	      0.250117	      0.113239	      0.247591	      0.108265	      0.996342	      0.057094	      0.606098	      0.055293	      0.020930	      0.039246
      0.428025	     -7.711223	    380.352695	    185.333389	     39.401225	      0.020607	      0.174654	      0.250128	      0.113235	      0.247605	      0.108262	      0.996382	      0.057074	      0.602594	      0.055283	      0.020928	      0.039246
      0.428245	     -7.627453	    380.766005	    185.341953	     38.412044	      0.020605	      0.174671	      0.250138	      0.113232	      0.247618	      0.108259	      0.996422	      0.057053	      0.599131	      0.055273	      0.020925	      0.039246
      0.428438	     -7.554144	    381.117174	    185.349263	     37.556631	      0.020603	      0.174713	      0.250147	      0.113230	      0.247629	      0.108257	      0.996457	      0.057035	      0.596135	      0.055265	      0.020923	      0.039246
      0.428630	     -7.480768	    381.463682	    185.356409	     36.708035	      0.020602	      0.174754	      0.250155	      0.113227	      0.247640	      0.108254	      0.996491	      0.057017	      0.593168	      0.055256	      0.020920	      0.039245
      0.428823	     -7.407325	    381.804699	    185.363392	     35.866585	      0.020600	      0.174797	      0.250163	      0.113225	      0.247651	      0.108252	      0.996524	      0.056999	      0.590231	      0.055247	      0.020918	      0.039245
      0.429066	     -7.314526	    382.227076	    185.371976	     34.814716	      0.020598	      0.174886	      0.250173	      0.113222	      0.247664	      0.108249	      0.996566	      0.056975	      0.586565	      0.055237	      0.020915	      0.039245
